<svg xmlns="http://www.w3.org/2000/svg" width="32" height="36" viewBox="0 0 32 36">
  <g id="Group_10" data-name="Group 10" transform="translate(-833 -472)">
    <rect id="Rectangle_4" data-name="Rectangle 4" width="32" height="36" rx="3" transform="translate(833 472)" fill="#fff"/>
    <path id="linkedin-in" d="M3.581,16.01H.264V5.328H3.581ZM1.921,3.87A1.93,1.93,0,1,1,3.842,1.931,1.937,1.937,0,0,1,1.921,3.87ZM16,16.01h-3.31v-5.2c0-1.239-.025-2.829-1.725-2.829-1.725,0-1.989,1.346-1.989,2.739V16.01H5.659V5.328H8.841V6.785h.046A3.486,3.486,0,0,1,12.026,5.06C15.383,5.06,16,7.271,16,10.142V16.01Z" transform="translate(841 481.99)" fill="#1b3764"/>
  </g>
</svg>
