<svg xmlns="http://www.w3.org/2000/svg" width="32" height="36" viewBox="0 0 32 36">
  <g id="Group_8" data-name="Group 8" transform="translate(-858 -478)">
    <rect id="Rectangle_2" data-name="Rectangle 2" width="32" height="36" rx="3" transform="translate(858 478)" fill="#fff"/>
    <path id="twitter" d="M14.355,52.07c.01.175.01.35.01.525,0,5.337-3.3,11.488-9.33,11.488A8.057,8.057,0,0,1,0,62.27a5.523,5.523,0,0,0,.792.05,5.836,5.836,0,0,0,4.071-1.725,3.453,3.453,0,0,1-3.066-2.8,3.379,3.379,0,0,0,.619.062,2.859,2.859,0,0,0,.863-.137A3.922,3.922,0,0,1,.65,53.757v-.05a2.852,2.852,0,0,0,1.482.512A4.344,4.344,0,0,1,.67,50.857a4.735,4.735,0,0,1,.447-2.037,8.89,8.89,0,0,0,6.761,4.225A5.574,5.574,0,0,1,7.8,52.12c0-2.225,1.462-4.038,3.279-4.038a3.024,3.024,0,0,1,2.4,1.275,5.78,5.78,0,0,0,2.081-.975,3.986,3.986,0,0,1-1.442,2.225A5.634,5.634,0,0,0,16,49.982,8.148,8.148,0,0,1,14.355,52.07Z" transform="translate(866 439.918)" fill="#1b3764"/>
  </g>
</svg>
